<svg width="32" height="32" viewBox="0 0 32 32" fill="none" xmlns="http://www.w3.org/2000/svg">
<g clip-path="url(#clip0_2007_23)">
<rect width="32" height="32" rx="6" fill="white"/>
<path d="M8.06001 13.0361C6.52458 13.9052 5.31949 15.2574 4.63229 16.8823C3.94509 18.5073 3.81433 20.3138 4.26036 22.0208C4.70639 23.7278 5.70419 25.2395 7.09847 26.3206C8.49275 27.4016 10.2053 27.9915 11.9696 27.9983C13.7339 28.0051 15.4509 27.4285 16.8535 26.3583C18.2561 25.288 19.2655 23.7841 19.7248 22.0806C20.184 20.3771 20.0672 18.5696 19.3926 16.9394C18.7179 15.3092 17.5233 13.9477 15.9947 13.0668" stroke="black" stroke-width="2" stroke-linecap="round" stroke-linejoin="round"/>
<path d="M15.9961 26.9278C17.4827 27.7868 19.2061 28.1447 20.9118 27.9487C22.6174 27.7527 24.2148 27.0131 25.4677 25.8394C26.7207 24.6656 27.5628 23.1199 27.8697 21.4307C28.1765 19.7414 27.9317 17.9983 27.1715 16.4589C26.4114 14.9195 25.1761 13.6654 23.6484 12.8821C22.1206 12.0988 20.3814 11.8278 18.6877 12.1091C16.994 12.3904 15.4358 13.2091 14.2432 14.4442C13.0507 15.6793 12.2872 17.2653 12.0654 18.9678" stroke="black" stroke-width="2" stroke-linecap="round" stroke-linejoin="round"/>
<path d="M23.9333 13.0466C23.9778 12.7034 24 12.3546 24 11.9999C23.9995 10.2426 23.4203 8.53439 22.352 7.13911C21.2837 5.74382 19.7858 4.7391 18.0895 4.28013C16.3932 3.82116 14.593 3.93348 12.9669 4.59974C11.3408 5.266 9.97932 6.44913 9.09275 7.96639C8.20619 9.48364 7.84386 11.2506 8.06174 12.9943C8.27961 14.738 9.06557 16.3615 10.2982 17.614C11.5308 18.8664 13.1416 19.6782 14.8816 19.9239C16.6216 20.1696 18.3941 19.8355 19.9253 18.9732" stroke="black" stroke-width="2" stroke-linecap="round" stroke-linejoin="round"/>
</g>
<defs>
<clipPath id="clip0_2007_23">
<rect width="32" height="32" rx="6" fill="white"/>
</clipPath>
</defs>
</svg>
